<svg width="1600" height="1100" viewBox="0 0 1600 1100" fill="none" xmlns="http://www.w3.org/2000/svg">
  <rect width="1600" height="1100" fill="#171511"/>
  <rect x="110" y="105" width="1380" height="890" rx="28" fill="#F5F2EB"/>
  <rect x="158" y="160" width="246" height="780" rx="20" fill="#171511"/>
  <rect x="448" y="160" width="412" height="238" rx="20" fill="#EEE7DA"/>
  <rect x="895" y="160" width="547" height="238" rx="20" fill="#EEE7DA"/>
  <rect x="448" y="432" width="994" height="226" rx="20" fill="#171511"/>
  <rect x="448" y="694" width="994" height="246" rx="20" fill="#EEE7DA"/>
  <rect x="205" y="215" width="152" height="16" rx="8" fill="#F5F2EB"/>
  <rect x="205" y="276" width="118" height="10" rx="5" fill="#F5F2EB" opacity=".45"/>
  <rect x="205" y="324" width="132" height="10" rx="5" fill="#F5F2EB" opacity=".45"/>
  <rect x="205" y="372" width="96" height="10" rx="5" fill="#F5F2EB" opacity=".45"/>
  <rect x="205" y="787" width="138" height="138" rx="24" fill="#FF5B2E"/>
  <path d="M520 325C568 254 629 259 662 315C696 373 741 376 796 226" stroke="#FF5B2E" stroke-width="22" stroke-linecap="round"/>
  <rect x="960" y="220" width="405" height="26" rx="13" fill="#171511"/>
  <rect x="960" y="283" width="306" height="18" rx="9" fill="#706B61" opacity=".55"/>
  <rect x="960" y="328" width="356" height="18" rx="9" fill="#706B61" opacity=".35"/>
  <path d="M520 565H1330" stroke="#F5F2EB" stroke-width="2" opacity=".22"/>
  <path d="M520 514H1330" stroke="#F5F2EB" stroke-width="2" opacity=".22"/>
  <path d="M520 615H1330" stroke="#F5F2EB" stroke-width="2" opacity=".22"/>
  <path d="M550 608L665 535L762 574L880 489L1023 548L1188 489L1320 514" stroke="#FF5B2E" stroke-width="16" stroke-linecap="round" stroke-linejoin="round"/>
  <rect x="520" y="755" width="760" height="18" rx="9" fill="#171511"/>
  <rect x="520" y="814" width="648" height="14" rx="7" fill="#706B61" opacity=".45"/>
  <rect x="520" y="862" width="812" height="14" rx="7" fill="#706B61" opacity=".28"/>
</svg>
