<svg width="1600" height="1100" viewBox="0 0 1600 1100" fill="none" xmlns="http://www.w3.org/2000/svg">
  <rect width="1600" height="1100" fill="#F5F2EB"/>
  <rect x="120" y="120" width="1360" height="860" rx="34" fill="#171511"/>
  <rect x="190" y="200" width="360" height="700" rx="26" fill="#EEE7DA"/>
  <rect x="620" y="200" width="790" height="146" rx="26" fill="#EEE7DA"/>
  <rect x="620" y="418" width="224" height="224" rx="34" fill="#EEE7DA"/>
  <rect x="900" y="418" width="224" height="224" rx="34" fill="#FF5B2E"/>
  <rect x="1186" y="418" width="224" height="224" rx="34" fill="#EEE7DA"/>
  <rect x="620" y="716" width="790" height="184" rx="26" fill="#EEE7DA"/>
  <rect x="254" y="276" width="178" height="24" rx="12" fill="#171511"/>
  <rect x="254" y="356" width="210" height="14" rx="7" fill="#706B61" opacity=".55"/>
  <rect x="254" y="416" width="148" height="14" rx="7" fill="#706B61" opacity=".36"/>
  <rect x="254" y="540" width="96" height="96" rx="48" fill="#FF5B2E"/>
  <rect x="374" y="540" width="96" height="96" rx="48" fill="#171511"/>
  <rect x="254" y="682" width="218" height="50" rx="25" fill="#171511"/>
  <rect x="690" y="258" width="420" height="20" rx="10" fill="#171511"/>
  <rect x="690" y="480" width="84" height="84" rx="22" fill="#171511"/>
  <rect x="968" y="480" width="88" height="88" rx="44" fill="#F5F2EB"/>
  <path d="M1260 566L1300 486L1340 566H1260Z" fill="#171511"/>
  <rect x="690" y="784" width="520" height="18" rx="9" fill="#171511"/>
  <rect x="690" y="840" width="610" height="14" rx="7" fill="#706B61" opacity=".42"/>
</svg>
