<svg width="1600" height="1100" viewBox="0 0 1600 1100" fill="none" xmlns="http://www.w3.org/2000/svg">
  <rect width="1600" height="1100" fill="#EEE7DA"/>
  <circle cx="1300" cy="186" r="360" fill="#FF5B2E" opacity=".92"/>
  <rect x="232" y="112" width="438" height="876" rx="64" fill="#171511"/>
  <rect x="265" y="158" width="372" height="784" rx="44" fill="#F5F2EB"/>
  <rect x="346" y="222" width="156" height="16" rx="8" fill="#171511"/>
  <rect x="346" y="285" width="214" height="82" rx="24" fill="#FF5B2E"/>
  <rect x="346" y="410" width="214" height="18" rx="9" fill="#171511"/>
  <rect x="346" y="455" width="236" height="12" rx="6" fill="#706B61" opacity=".45"/>
  <rect x="346" y="505" width="235" height="160" rx="26" fill="#171511"/>
  <rect x="374" y="540" width="118" height="12" rx="6" fill="#F5F2EB"/>
  <rect x="374" y="588" width="176" height="18" rx="9" fill="#FF5B2E"/>
  <rect x="346" y="700" width="92" height="92" rx="28" fill="#EEE7DA"/>
  <rect x="468" y="700" width="92" height="92" rx="28" fill="#EEE7DA"/>
  <rect x="765" y="235" width="560" height="630" rx="38" fill="#171511"/>
  <rect x="830" y="310" width="246" height="24" rx="12" fill="#F5F2EB"/>
  <rect x="830" y="376" width="382" height="16" rx="8" fill="#F5F2EB" opacity=".55"/>
  <rect x="830" y="430" width="410" height="100" rx="24" fill="#FF5B2E"/>
  <rect x="830" y="580" width="410" height="34" rx="17" fill="#F5F2EB"/>
  <rect x="830" y="658" width="315" height="16" rx="8" fill="#F5F2EB" opacity=".42"/>
  <rect x="830" y="710" width="372" height="16" rx="8" fill="#F5F2EB" opacity=".26"/>
</svg>
